<mxfile host="Electron" agent="Mozilla/5.0 (Macintosh; Intel Mac OS X 10_15_7) AppleWebKit/537.36 (KHTML, like Gecko) draw.io/26.0.9 Chrome/128.0.6613.186 Electron/32.2.5 Safari/537.36" version="26.0.9" pages="3">
  <diagram name="Чена" id="1wWP5-AOo3hPFBT2kaHu">
    <mxGraphModel dx="1311" dy="2240" grid="1" gridSize="10" guides="1" tooltips="1" connect="1" arrows="1" fold="1" page="1" pageScale="1" pageWidth="827" pageHeight="1169" math="0" shadow="0">
      <root>
        <mxCell id="0" />
        <mxCell id="1" parent="0" />
        <mxCell id="ZJtHcfAPjwSgVXNK9L1_-9" value="&lt;font style=&quot;font-size: 18px;&quot;&gt;&lt;font style=&quot;vertical-align: inherit;&quot;&gt;&lt;font style=&quot;vertical-align: inherit;&quot;&gt;Номер заказа&lt;/font&gt;&lt;/font&gt;&lt;/font&gt;" style="ellipse;whiteSpace=wrap;html=1;labelBackgroundColor=none;labelBorderColor=none;fontSize=24;strokeWidth=1;gradientColor=none;rotation=0;fontStyle=4" parent="1" vertex="1">
          <mxGeometry x="460" y="-440" width="150" height="70" as="geometry" />
        </mxCell>
        <mxCell id="ZJtHcfAPjwSgVXNK9L1_-11" value="" style="endArrow=none;html=1;rounded=0;fontSize=30;entryX=0;entryY=0;entryDx=35;entryDy=64;exitX=0.676;exitY=0.057;exitDx=0;exitDy=0;entryPerimeter=0;exitPerimeter=0;" parent="1" source="ZJtHcfAPjwSgVXNK9L1_-9" target="ZJtHcfAPjwSgVXNK9L1_-80" edge="1">
          <mxGeometry relative="1" as="geometry">
            <mxPoint x="454.96000000000004" y="-452" as="sourcePoint" />
            <mxPoint x="550" y="-502.5" as="targetPoint" />
          </mxGeometry>
        </mxCell>
        <mxCell id="ZJtHcfAPjwSgVXNK9L1_-13" value="&lt;span&gt;&lt;font style=&quot;font-size: 18px;&quot;&gt;Сумма&lt;/font&gt;&lt;/span&gt;" style="ellipse;whiteSpace=wrap;html=1;labelBackgroundColor=none;labelBorderColor=none;fontSize=23;strokeWidth=1;" parent="1" vertex="1">
          <mxGeometry x="610" y="-390" width="120" height="50" as="geometry" />
        </mxCell>
        <mxCell id="ZJtHcfAPjwSgVXNK9L1_-14" value="&lt;font style=&quot;vertical-align: inherit;&quot;&gt;&lt;font style=&quot;vertical-align: inherit;&quot;&gt;Информация о доставке&lt;/font&gt;&lt;/font&gt;" style="ellipse;whiteSpace=wrap;html=1;labelBackgroundColor=none;labelBorderColor=none;fontSize=18;strokeWidth=1;" parent="1" vertex="1">
          <mxGeometry x="340" y="-720" width="150" height="80" as="geometry" />
        </mxCell>
        <mxCell id="ZJtHcfAPjwSgVXNK9L1_-15" value="&lt;font style=&quot;vertical-align: inherit;&quot;&gt;&lt;font style=&quot;vertical-align: inherit;&quot;&gt;Способ оплаты&lt;/font&gt;&lt;/font&gt;" style="ellipse;whiteSpace=wrap;html=1;labelBackgroundColor=none;labelBorderColor=none;fontSize=18;strokeWidth=1;" parent="1" vertex="1">
          <mxGeometry x="760" y="-520" width="120" height="80" as="geometry" />
        </mxCell>
        <mxCell id="ZJtHcfAPjwSgVXNK9L1_-17" value="" style="endArrow=none;html=1;rounded=0;fontSize=30;entryX=0.094;entryY=0.288;entryDx=0;entryDy=0;exitX=1;exitY=0.75;exitDx=0;exitDy=0;entryPerimeter=0;" parent="1" target="ZJtHcfAPjwSgVXNK9L1_-15" edge="1">
          <mxGeometry relative="1" as="geometry">
            <mxPoint x="680" y="-502.5" as="sourcePoint" />
            <mxPoint x="850" y="-410.5" as="targetPoint" />
          </mxGeometry>
        </mxCell>
        <mxCell id="ZJtHcfAPjwSgVXNK9L1_-18" value="" style="endArrow=none;html=1;rounded=0;fontSize=30;exitX=0.583;exitY=0.025;exitDx=0;exitDy=0;exitPerimeter=0;" parent="1" source="ZJtHcfAPjwSgVXNK9L1_-13" edge="1">
          <mxGeometry relative="1" as="geometry">
            <mxPoint x="360" y="-410.5" as="sourcePoint" />
            <mxPoint x="670" y="-485" as="targetPoint" />
          </mxGeometry>
        </mxCell>
        <mxCell id="ZJtHcfAPjwSgVXNK9L1_-19" value="&lt;font style=&quot;vertical-align: inherit;&quot;&gt;&lt;font style=&quot;vertical-align: inherit;&quot;&gt;Город&lt;/font&gt;&lt;/font&gt;" style="ellipse;whiteSpace=wrap;html=1;fontSize=18;" parent="1" vertex="1">
          <mxGeometry x="180" y="-775" width="125" height="50" as="geometry" />
        </mxCell>
        <mxCell id="ZJtHcfAPjwSgVXNK9L1_-20" value="&lt;font style=&quot;&quot;&gt;&lt;font style=&quot;vertical-align: inherit;&quot;&gt;&lt;font style=&quot;vertical-align: inherit;&quot;&gt;&lt;font style=&quot;vertical-align: inherit;&quot;&gt;&lt;font style=&quot;vertical-align: inherit; font-size: 18px;&quot;&gt;Индекс&lt;/font&gt;&lt;/font&gt;&lt;/font&gt;&lt;/font&gt;&lt;/font&gt;" style="ellipse;whiteSpace=wrap;html=1;" parent="1" vertex="1">
          <mxGeometry x="140" y="-670" width="120" height="60" as="geometry" />
        </mxCell>
        <mxCell id="ZJtHcfAPjwSgVXNK9L1_-21" value="" style="endArrow=none;html=1;rounded=0;entryX=0.027;entryY=0.683;entryDx=0;entryDy=0;exitX=1;exitY=0.5;exitDx=0;exitDy=0;entryPerimeter=0;" parent="1" source="ZJtHcfAPjwSgVXNK9L1_-20" target="ZJtHcfAPjwSgVXNK9L1_-14" edge="1">
          <mxGeometry width="50" height="50" relative="1" as="geometry">
            <mxPoint x="810" y="-240" as="sourcePoint" />
            <mxPoint x="860" y="-290" as="targetPoint" />
          </mxGeometry>
        </mxCell>
        <mxCell id="ZJtHcfAPjwSgVXNK9L1_-22" value="&lt;font style=&quot;vertical-align: inherit;&quot;&gt;&lt;font style=&quot;vertical-align: inherit;&quot;&gt;Улица&lt;/font&gt;&lt;/font&gt;" style="ellipse;whiteSpace=wrap;html=1;fontSize=18;" parent="1" vertex="1">
          <mxGeometry x="240" y="-825" width="100" height="50" as="geometry" />
        </mxCell>
        <mxCell id="ZJtHcfAPjwSgVXNK9L1_-23" value="" style="endArrow=none;html=1;rounded=0;entryX=0.373;entryY=0.067;entryDx=0;entryDy=0;entryPerimeter=0;exitX=0.773;exitY=0.9;exitDx=0;exitDy=0;exitPerimeter=0;" parent="1" source="ZJtHcfAPjwSgVXNK9L1_-22" target="ZJtHcfAPjwSgVXNK9L1_-14" edge="1">
          <mxGeometry width="50" height="50" relative="1" as="geometry">
            <mxPoint x="430" y="-830" as="sourcePoint" />
            <mxPoint x="960" y="-340" as="targetPoint" />
          </mxGeometry>
        </mxCell>
        <mxCell id="ZJtHcfAPjwSgVXNK9L1_-25" value="" style="endArrow=none;html=1;rounded=0;exitX=0.971;exitY=0.78;exitDx=0;exitDy=0;exitPerimeter=0;" parent="1" source="ZJtHcfAPjwSgVXNK9L1_-19" target="ZJtHcfAPjwSgVXNK9L1_-14" edge="1">
          <mxGeometry width="50" height="50" relative="1" as="geometry">
            <mxPoint x="670" y="-280" as="sourcePoint" />
            <mxPoint x="720" y="-330" as="targetPoint" />
          </mxGeometry>
        </mxCell>
        <mxCell id="ZJtHcfAPjwSgVXNK9L1_-27" value="&lt;font style=&quot;font-size: 18px;&quot;&gt;&lt;font style=&quot;vertical-align: inherit;&quot;&gt;&lt;font style=&quot;vertical-align: inherit;&quot;&gt;Безналичный платеж&lt;/font&gt;&lt;/font&gt;&lt;/font&gt;" style="ellipse;whiteSpace=wrap;html=1;" parent="1" vertex="1">
          <mxGeometry x="790" y="-410" width="160" height="60" as="geometry" />
        </mxCell>
        <mxCell id="ZJtHcfAPjwSgVXNK9L1_-28" value="&lt;font style=&quot;font-size: 18px;&quot;&gt;&lt;font style=&quot;vertical-align: inherit;&quot;&gt;&lt;font style=&quot;vertical-align: inherit;&quot;&gt;Наличный платеж&lt;/font&gt;&lt;/font&gt;&lt;/font&gt;" style="ellipse;whiteSpace=wrap;html=1;" parent="1" vertex="1">
          <mxGeometry x="950" y="-450" width="143" height="60" as="geometry" />
        </mxCell>
        <mxCell id="ZJtHcfAPjwSgVXNK9L1_-29" value="&lt;font style=&quot;font-size: 18px;&quot;&gt;&lt;font style=&quot;vertical-align: inherit;&quot;&gt;&lt;font style=&quot;vertical-align: inherit;&quot;&gt;№ карты&lt;/font&gt;&lt;/font&gt;&lt;/font&gt;" style="ellipse;whiteSpace=wrap;html=1;" parent="1" vertex="1">
          <mxGeometry x="697.5" y="-310" width="132.5" height="50" as="geometry" />
        </mxCell>
        <mxCell id="ZJtHcfAPjwSgVXNK9L1_-30" value="" style="endArrow=none;html=1;rounded=0;entryX=0.558;entryY=1.025;entryDx=0;entryDy=0;entryPerimeter=0;exitX=0.375;exitY=0.05;exitDx=0;exitDy=0;exitPerimeter=0;" parent="1" source="ZJtHcfAPjwSgVXNK9L1_-27" target="ZJtHcfAPjwSgVXNK9L1_-15" edge="1">
          <mxGeometry width="50" height="50" relative="1" as="geometry">
            <mxPoint x="980" y="-360" as="sourcePoint" />
            <mxPoint x="1030" y="-410" as="targetPoint" />
          </mxGeometry>
        </mxCell>
        <mxCell id="ZJtHcfAPjwSgVXNK9L1_-31" value="" style="endArrow=none;html=1;rounded=0;exitX=0.95;exitY=0.713;exitDx=0;exitDy=0;exitPerimeter=0;entryX=0;entryY=0;entryDx=0;entryDy=0;" parent="1" source="ZJtHcfAPjwSgVXNK9L1_-15" target="ZJtHcfAPjwSgVXNK9L1_-28" edge="1">
          <mxGeometry width="50" height="50" relative="1" as="geometry">
            <mxPoint x="1070" y="-420" as="sourcePoint" />
            <mxPoint x="1120" y="-470" as="targetPoint" />
          </mxGeometry>
        </mxCell>
        <mxCell id="ZJtHcfAPjwSgVXNK9L1_-32" value="" style="endArrow=none;html=1;rounded=0;exitX=0;exitY=1;exitDx=0;exitDy=0;entryX=0.627;entryY=0.075;entryDx=0;entryDy=0;entryPerimeter=0;" parent="1" source="ZJtHcfAPjwSgVXNK9L1_-27" target="ZJtHcfAPjwSgVXNK9L1_-29" edge="1">
          <mxGeometry width="50" height="50" relative="1" as="geometry">
            <mxPoint x="1060" y="-480" as="sourcePoint" />
            <mxPoint x="1120" y="-467" as="targetPoint" />
          </mxGeometry>
        </mxCell>
        <mxCell id="ZJtHcfAPjwSgVXNK9L1_-33" value="&lt;font style=&quot;font-size: 18px;&quot;&gt;&lt;font style=&quot;vertical-align: inherit;&quot;&gt;&lt;font style=&quot;vertical-align: inherit;&quot;&gt;Товар&lt;/font&gt;&lt;/font&gt;&lt;/font&gt;" style="rounded=0;whiteSpace=wrap;html=1;" parent="1" vertex="1">
          <mxGeometry x="900" y="-870" width="120" height="60" as="geometry" />
        </mxCell>
        <mxCell id="ZJtHcfAPjwSgVXNK9L1_-34" value="&lt;font style=&quot;font-size: 18px;&quot;&gt;содержит&lt;/font&gt;" style="shape=associativeEntity;whiteSpace=wrap;html=1;align=center;" parent="1" vertex="1">
          <mxGeometry x="695" y="-730" width="140" height="60" as="geometry" />
        </mxCell>
        <mxCell id="ZJtHcfAPjwSgVXNK9L1_-35" value="" style="endArrow=none;html=1;rounded=0;entryX=0;entryY=0.5;entryDx=0;entryDy=0;exitX=0.75;exitY=0;exitDx=0;exitDy=0;" parent="1" source="ZJtHcfAPjwSgVXNK9L1_-34" target="ZJtHcfAPjwSgVXNK9L1_-33" edge="1">
          <mxGeometry relative="1" as="geometry">
            <mxPoint x="740" y="-760" as="sourcePoint" />
            <mxPoint x="889.98" y="-840" as="targetPoint" />
          </mxGeometry>
        </mxCell>
        <mxCell id="ZJtHcfAPjwSgVXNK9L1_-36" value="&lt;font style=&quot;font-size: 18px;&quot;&gt;&lt;font style=&quot;vertical-align: inherit;&quot;&gt;&lt;font style=&quot;vertical-align: inherit;&quot;&gt;Количество&lt;/font&gt;&lt;/font&gt;&lt;/font&gt;" style="ellipse;whiteSpace=wrap;html=1;" parent="1" vertex="1">
          <mxGeometry x="800" y="-620" width="120" height="80" as="geometry" />
        </mxCell>
        <mxCell id="ZJtHcfAPjwSgVXNK9L1_-37" value="&lt;font style=&quot;font-size: 18px;&quot;&gt;&lt;font style=&quot;vertical-align: inherit;&quot;&gt;&lt;font style=&quot;vertical-align: inherit;&quot;&gt;Название&lt;/font&gt;&lt;/font&gt;&lt;/font&gt;" style="ellipse;whiteSpace=wrap;html=1;" parent="1" vertex="1">
          <mxGeometry x="870" y="-1000" width="110" height="50" as="geometry" />
        </mxCell>
        <mxCell id="ZJtHcfAPjwSgVXNK9L1_-38" value="&lt;font style=&quot;font-size: 18px;&quot;&gt;&lt;font style=&quot;vertical-align: inherit;&quot;&gt;&lt;font style=&quot;vertical-align: inherit;&quot;&gt;Описание&lt;/font&gt;&lt;/font&gt;&lt;/font&gt;" style="ellipse;whiteSpace=wrap;html=1;" parent="1" vertex="1">
          <mxGeometry x="760" y="-930" width="110" height="60" as="geometry" />
        </mxCell>
        <mxCell id="ZJtHcfAPjwSgVXNK9L1_-39" value="&lt;font style=&quot;font-size: 18px;&quot;&gt;&lt;u&gt;&lt;font style=&quot;vertical-align: inherit;&quot;&gt;&lt;font style=&quot;vertical-align: inherit;&quot;&gt;Артикул&lt;/font&gt;&lt;/font&gt;&lt;/u&gt;&lt;/font&gt;" style="ellipse;whiteSpace=wrap;html=1;" parent="1" vertex="1">
          <mxGeometry x="1050" y="-780" width="100" height="60" as="geometry" />
        </mxCell>
        <mxCell id="ZJtHcfAPjwSgVXNK9L1_-40" value="&lt;font style=&quot;font-size: 18px;&quot;&gt;&lt;font style=&quot;vertical-align: inherit;&quot;&gt;&lt;font style=&quot;vertical-align: inherit;&quot;&gt;Цена&lt;/font&gt;&lt;/font&gt;&lt;/font&gt;" style="ellipse;whiteSpace=wrap;html=1;" parent="1" vertex="1">
          <mxGeometry x="1047" y="-945" width="103" height="50" as="geometry" />
        </mxCell>
        <mxCell id="ZJtHcfAPjwSgVXNK9L1_-43" value="" style="endArrow=none;html=1;rounded=0;exitX=0.5;exitY=1;exitDx=0;exitDy=0;entryX=0.25;entryY=0;entryDx=0;entryDy=0;" parent="1" source="ZJtHcfAPjwSgVXNK9L1_-37" target="ZJtHcfAPjwSgVXNK9L1_-33" edge="1">
          <mxGeometry width="50" height="50" relative="1" as="geometry">
            <mxPoint x="740" y="-830" as="sourcePoint" />
            <mxPoint x="898" y="-862" as="targetPoint" />
          </mxGeometry>
        </mxCell>
        <mxCell id="ZJtHcfAPjwSgVXNK9L1_-44" value="" style="endArrow=none;html=1;rounded=0;entryX=1;entryY=1;entryDx=0;entryDy=0;exitX=0.967;exitY=0.133;exitDx=0;exitDy=0;exitPerimeter=0;" parent="1" target="ZJtHcfAPjwSgVXNK9L1_-38" edge="1">
          <mxGeometry width="50" height="50" relative="1" as="geometry">
            <mxPoint x="899.0100000000002" y="-851.01" as="sourcePoint" />
            <mxPoint x="940" y="-930" as="targetPoint" />
          </mxGeometry>
        </mxCell>
        <mxCell id="ZJtHcfAPjwSgVXNK9L1_-45" value="" style="endArrow=none;html=1;rounded=0;exitX=0.844;exitY=1.011;exitDx=0;exitDy=0;exitPerimeter=0;" parent="1" source="ZJtHcfAPjwSgVXNK9L1_-33" target="ZJtHcfAPjwSgVXNK9L1_-39" edge="1">
          <mxGeometry width="50" height="50" relative="1" as="geometry">
            <mxPoint x="980" y="-870" as="sourcePoint" />
            <mxPoint x="1030" y="-920" as="targetPoint" />
          </mxGeometry>
        </mxCell>
        <mxCell id="ZJtHcfAPjwSgVXNK9L1_-46" value="" style="endArrow=none;html=1;rounded=0;entryX=0.345;entryY=1.033;entryDx=0;entryDy=0;entryPerimeter=0;" parent="1" target="ZJtHcfAPjwSgVXNK9L1_-40" edge="1">
          <mxGeometry width="50" height="50" relative="1" as="geometry">
            <mxPoint x="1000" y="-870" as="sourcePoint" />
            <mxPoint x="790" y="-880" as="targetPoint" />
          </mxGeometry>
        </mxCell>
        <mxCell id="ZJtHcfAPjwSgVXNK9L1_-47" value="&lt;font style=&quot;font-size: 18px;&quot;&gt;&lt;font style=&quot;vertical-align: inherit;&quot;&gt;&lt;font style=&quot;vertical-align: inherit;&quot;&gt;Доступность (количество)&lt;/font&gt;&lt;/font&gt;&lt;/font&gt;" style="ellipse;whiteSpace=wrap;html=1;" parent="1" vertex="1">
          <mxGeometry x="980" y="-1070" width="140" height="70" as="geometry" />
        </mxCell>
        <mxCell id="ZJtHcfAPjwSgVXNK9L1_-48" value="" style="endArrow=none;html=1;rounded=0;entryX=0.417;entryY=0;entryDx=0;entryDy=0;entryPerimeter=0;" parent="1" source="ZJtHcfAPjwSgVXNK9L1_-47" target="ZJtHcfAPjwSgVXNK9L1_-33" edge="1">
          <mxGeometry width="50" height="50" relative="1" as="geometry">
            <mxPoint x="670" y="-870" as="sourcePoint" />
            <mxPoint x="720" y="-920" as="targetPoint" />
          </mxGeometry>
        </mxCell>
        <mxCell id="ZJtHcfAPjwSgVXNK9L1_-55" value="" style="endArrow=none;html=1;rounded=0;entryX=0;entryY=0.5;entryDx=0;entryDy=0;exitX=1;exitY=0.5;exitDx=0;exitDy=0;" parent="1" target="ZJtHcfAPjwSgVXNK9L1_-36" edge="1">
          <mxGeometry width="50" height="50" relative="1" as="geometry">
            <mxPoint x="680" y="-520" as="sourcePoint" />
            <mxPoint x="670" y="-640" as="targetPoint" />
          </mxGeometry>
        </mxCell>
        <mxCell id="ZJtHcfAPjwSgVXNK9L1_-59" value="N (1;*)" style="text;html=1;align=center;verticalAlign=middle;resizable=0;points=[];autosize=1;strokeColor=none;fillColor=none;" parent="1" vertex="1">
          <mxGeometry x="840" y="-855" width="60" height="30" as="geometry" />
        </mxCell>
        <mxCell id="ZJtHcfAPjwSgVXNK9L1_-60" value="" style="endArrow=none;html=1;rounded=0;entryX=0.5;entryY=1;entryDx=0;entryDy=0;exitX=0.651;exitY=-0.005;exitDx=0;exitDy=0;exitPerimeter=0;" parent="1" target="ZJtHcfAPjwSgVXNK9L1_-34" edge="1">
          <mxGeometry width="50" height="50" relative="1" as="geometry">
            <mxPoint x="634.6300000000001" y="-555.3499999999999" as="sourcePoint" />
            <mxPoint x="710" y="-690" as="targetPoint" />
          </mxGeometry>
        </mxCell>
        <mxCell id="ZJtHcfAPjwSgVXNK9L1_-61" value="" style="endArrow=none;html=1;rounded=0;entryX=0.429;entryY=1.028;entryDx=0;entryDy=0;entryPerimeter=0;exitX=0.579;exitY=0.033;exitDx=0;exitDy=0;exitPerimeter=0;" parent="1" target="ZJtHcfAPjwSgVXNK9L1_-34" edge="1">
          <mxGeometry width="50" height="50" relative="1" as="geometry">
            <mxPoint x="625.27" y="-552.69" as="sourcePoint" />
            <mxPoint x="710" y="-690" as="targetPoint" />
          </mxGeometry>
        </mxCell>
        <mxCell id="ZJtHcfAPjwSgVXNK9L1_-62" value="M(0;*)" style="text;html=1;align=center;verticalAlign=middle;resizable=0;points=[];autosize=1;strokeColor=none;fillColor=none;" parent="1" vertex="1">
          <mxGeometry x="610" y="-600" width="60" height="30" as="geometry" />
        </mxCell>
        <mxCell id="ZJtHcfAPjwSgVXNK9L1_-66" value="&lt;font style=&quot;font-size: 18px;&quot;&gt;&lt;font style=&quot;vertical-align: inherit;&quot;&gt;&lt;font style=&quot;vertical-align: inherit;&quot;&gt;&lt;font style=&quot;vertical-align: inherit;&quot;&gt;&lt;font style=&quot;vertical-align: inherit;&quot;&gt;Эл. почта&lt;/font&gt;&lt;/font&gt;&lt;/font&gt;&lt;/font&gt;&lt;/font&gt;" style="ellipse;whiteSpace=wrap;html=1;align=center;" parent="1" vertex="1">
          <mxGeometry x="180" y="-594" width="100" height="40" as="geometry" />
        </mxCell>
        <mxCell id="ZJtHcfAPjwSgVXNK9L1_-67" value="&lt;font style=&quot;font-size: 18px;&quot;&gt;ФИО&lt;/font&gt;" style="ellipse;whiteSpace=wrap;html=1;align=center;" parent="1" vertex="1">
          <mxGeometry x="150" y="-530" width="100" height="40" as="geometry" />
        </mxCell>
        <mxCell id="ZJtHcfAPjwSgVXNK9L1_-68" value="&lt;font style=&quot;font-size: 18px;&quot;&gt;Номер телефона&lt;/font&gt;" style="ellipse;whiteSpace=wrap;html=1;align=center;" parent="1" vertex="1">
          <mxGeometry x="130" y="-450" width="140" height="70" as="geometry" />
        </mxCell>
        <mxCell id="ZJtHcfAPjwSgVXNK9L1_-71" value="" style="endArrow=none;html=1;rounded=0;exitX=1;exitY=0.725;exitDx=0;exitDy=0;entryX=0.006;entryY=0.364;entryDx=0;entryDy=0;exitPerimeter=0;entryPerimeter=0;" parent="1" source="ZJtHcfAPjwSgVXNK9L1_-67" target="ZJtHcfAPjwSgVXNK9L1_-86" edge="1">
          <mxGeometry relative="1" as="geometry">
            <mxPoint x="150" y="-840" as="sourcePoint" />
            <mxPoint x="222.5" y="-830" as="targetPoint" />
          </mxGeometry>
        </mxCell>
        <mxCell id="ZJtHcfAPjwSgVXNK9L1_-72" value="" style="endArrow=none;html=1;rounded=0;exitX=1;exitY=0.5;exitDx=0;exitDy=0;entryX=0.282;entryY=0.976;entryDx=0;entryDy=0;entryPerimeter=0;" parent="1" source="ZJtHcfAPjwSgVXNK9L1_-68" target="ZJtHcfAPjwSgVXNK9L1_-86" edge="1">
          <mxGeometry relative="1" as="geometry">
            <mxPoint x="280" y="-800" as="sourcePoint" />
            <mxPoint x="265" y="-830" as="targetPoint" />
          </mxGeometry>
        </mxCell>
        <mxCell id="ZJtHcfAPjwSgVXNK9L1_-73" value="" style="endArrow=none;html=1;rounded=0;exitX=1;exitY=1;exitDx=0;exitDy=0;entryX=0.2;entryY=0.036;entryDx=0;entryDy=0;entryPerimeter=0;" parent="1" source="ZJtHcfAPjwSgVXNK9L1_-66" target="ZJtHcfAPjwSgVXNK9L1_-86" edge="1">
          <mxGeometry relative="1" as="geometry">
            <mxPoint x="260" y="-940" as="sourcePoint" />
            <mxPoint x="265" y="-885" as="targetPoint" />
          </mxGeometry>
        </mxCell>
        <mxCell id="ZJtHcfAPjwSgVXNK9L1_-80" value="" style="verticalLabelPosition=bottom;verticalAlign=top;html=1;shape=mxgraph.basic.frame;dx=10;whiteSpace=wrap;" parent="1" vertex="1">
          <mxGeometry x="550" y="-554" width="140" height="64" as="geometry" />
        </mxCell>
        <mxCell id="ZJtHcfAPjwSgVXNK9L1_-81" value="&lt;font style=&quot;font-size: 18px;&quot;&gt;&lt;font style=&quot;vertical-align: inherit;&quot;&gt;&lt;font style=&quot;vertical-align: inherit;&quot;&gt;Заказ&lt;/font&gt;&lt;/font&gt;&lt;/font&gt;" style="text;html=1;align=center;verticalAlign=middle;resizable=0;points=[];autosize=1;strokeColor=none;fillColor=none;" parent="1" vertex="1">
          <mxGeometry x="580" y="-542" width="70" height="40" as="geometry" />
        </mxCell>
        <mxCell id="ZJtHcfAPjwSgVXNK9L1_-86" value="&lt;font style=&quot;vertical-align: inherit;&quot;&gt;&lt;font style=&quot;vertical-align: inherit;&quot;&gt;&lt;font style=&quot;vertical-align: inherit;&quot;&gt;&lt;font style=&quot;vertical-align: inherit;&quot;&gt;&lt;font style=&quot;vertical-align: inherit;&quot;&gt;&lt;font style=&quot;vertical-align: inherit; font-size: 18px;&quot;&gt;&lt;font style=&quot;vertical-align: inherit;&quot;&gt;&lt;font style=&quot;vertical-align: inherit;&quot;&gt;Данные пользователя&lt;/font&gt;&lt;/font&gt;&lt;/font&gt;&lt;/font&gt;&lt;/font&gt;&lt;/font&gt;&lt;/font&gt;&lt;/font&gt;" style="ellipse;whiteSpace=wrap;html=1;align=center;" parent="1" vertex="1">
          <mxGeometry x="300" y="-535" width="170" height="55" as="geometry" />
        </mxCell>
        <mxCell id="ZJtHcfAPjwSgVXNK9L1_-87" value="" style="endArrow=none;html=1;rounded=0;exitX=1;exitY=0.5;exitDx=0;exitDy=0;entryX=0;entryY=0.5;entryDx=0;entryDy=0;entryPerimeter=0;" parent="1" source="ZJtHcfAPjwSgVXNK9L1_-86" target="ZJtHcfAPjwSgVXNK9L1_-80" edge="1">
          <mxGeometry width="50" height="50" relative="1" as="geometry">
            <mxPoint x="550" y="-580" as="sourcePoint" />
            <mxPoint x="600" y="-630" as="targetPoint" />
          </mxGeometry>
        </mxCell>
        <mxCell id="ZJtHcfAPjwSgVXNK9L1_-88" value="&lt;font style=&quot;vertical-align: inherit;&quot;&gt;&lt;font style=&quot;vertical-align: inherit; font-size: 18px;&quot;&gt;Страна&lt;/font&gt;&lt;/font&gt;" style="ellipse;whiteSpace=wrap;html=1;" parent="1" vertex="1">
          <mxGeometry x="150" y="-722.5" width="130" height="45" as="geometry" />
        </mxCell>
        <mxCell id="ZJtHcfAPjwSgVXNK9L1_-89" value="" style="endArrow=none;html=1;rounded=0;exitX=1;exitY=0.5;exitDx=0;exitDy=0;entryX=0.056;entryY=0.283;entryDx=0;entryDy=0;entryPerimeter=0;" parent="1" source="ZJtHcfAPjwSgVXNK9L1_-88" target="ZJtHcfAPjwSgVXNK9L1_-14" edge="1">
          <mxGeometry width="50" height="50" relative="1" as="geometry">
            <mxPoint x="370" y="-740" as="sourcePoint" />
            <mxPoint x="420" y="-790" as="targetPoint" />
          </mxGeometry>
        </mxCell>
        <mxCell id="ZJtHcfAPjwSgVXNK9L1_-90" value="" style="endArrow=none;html=1;rounded=0;exitX=0.5;exitY=0;exitDx=0;exitDy=0;entryX=0.5;entryY=1;entryDx=0;entryDy=0;" parent="1" source="ZJtHcfAPjwSgVXNK9L1_-86" target="ZJtHcfAPjwSgVXNK9L1_-14" edge="1">
          <mxGeometry width="50" height="50" relative="1" as="geometry">
            <mxPoint x="490" y="-620" as="sourcePoint" />
            <mxPoint x="540" y="-670" as="targetPoint" />
          </mxGeometry>
        </mxCell>
        <mxCell id="ZJtHcfAPjwSgVXNK9L1_-91" value="&lt;font style=&quot;vertical-align: inherit;&quot;&gt;&lt;font style=&quot;vertical-align: inherit; font-size: 18px;&quot;&gt;№ дома&lt;/font&gt;&lt;/font&gt;" style="ellipse;whiteSpace=wrap;html=1;" parent="1" vertex="1">
          <mxGeometry x="305" y="-875" width="130" height="50" as="geometry" />
        </mxCell>
        <mxCell id="ZJtHcfAPjwSgVXNK9L1_-92" value="&lt;font style=&quot;vertical-align: inherit;&quot;&gt;&lt;font style=&quot;vertical-align: inherit; font-size: 18px;&quot;&gt;№ квартиры&lt;/font&gt;&lt;/font&gt;" style="ellipse;whiteSpace=wrap;html=1;" parent="1" vertex="1">
          <mxGeometry x="390" y="-815" width="130" height="40" as="geometry" />
        </mxCell>
        <mxCell id="ZJtHcfAPjwSgVXNK9L1_-93" value="" style="endArrow=none;html=1;rounded=0;entryX=0.5;entryY=1;entryDx=0;entryDy=0;exitX=0.5;exitY=0;exitDx=0;exitDy=0;" parent="1" source="ZJtHcfAPjwSgVXNK9L1_-14" target="ZJtHcfAPjwSgVXNK9L1_-91" edge="1">
          <mxGeometry width="50" height="50" relative="1" as="geometry">
            <mxPoint x="430" y="-740" as="sourcePoint" />
            <mxPoint x="480" y="-790" as="targetPoint" />
          </mxGeometry>
        </mxCell>
        <mxCell id="ZJtHcfAPjwSgVXNK9L1_-94" value="" style="endArrow=none;html=1;rounded=0;entryX=0.5;entryY=1;entryDx=0;entryDy=0;exitX=0.747;exitY=0.067;exitDx=0;exitDy=0;exitPerimeter=0;" parent="1" source="ZJtHcfAPjwSgVXNK9L1_-14" target="ZJtHcfAPjwSgVXNK9L1_-92" edge="1">
          <mxGeometry width="50" height="50" relative="1" as="geometry">
            <mxPoint x="510" y="-730" as="sourcePoint" />
            <mxPoint x="560" y="-780" as="targetPoint" />
          </mxGeometry>
        </mxCell>
        <mxCell id="ZJtHcfAPjwSgVXNK9L1_-95" value="&lt;font style=&quot;vertical-align: inherit;&quot;&gt;&lt;font style=&quot;vertical-align: inherit; font-size: 18px;&quot;&gt;&lt;font style=&quot;vertical-align: inherit;&quot;&gt;&lt;font style=&quot;vertical-align: inherit;&quot;&gt;&lt;font style=&quot;vertical-align: inherit;&quot;&gt;&lt;font style=&quot;vertical-align: inherit;&quot;&gt;Код подтверждения&lt;/font&gt;&lt;/font&gt;&lt;/font&gt;&lt;/font&gt;&lt;/font&gt;&lt;/font&gt;" style="ellipse;whiteSpace=wrap;html=1;" parent="1" vertex="1">
          <mxGeometry x="840" y="-290" width="150" height="80" as="geometry" />
        </mxCell>
        <mxCell id="ZJtHcfAPjwSgVXNK9L1_-96" value="&lt;font style=&quot;vertical-align: inherit;&quot;&gt;&lt;font style=&quot;vertical-align: inherit; font-size: 18px;&quot;&gt;Статус оплаты&lt;/font&gt;&lt;/font&gt;" style="ellipse;whiteSpace=wrap;html=1;" parent="1" vertex="1">
          <mxGeometry x="970" y="-350" width="160" height="70" as="geometry" />
        </mxCell>
        <mxCell id="ZJtHcfAPjwSgVXNK9L1_-97" value="" style="endArrow=none;html=1;rounded=0;entryX=0.579;entryY=1.033;entryDx=0;entryDy=0;entryPerimeter=0;" parent="1" source="ZJtHcfAPjwSgVXNK9L1_-95" target="ZJtHcfAPjwSgVXNK9L1_-27" edge="1">
          <mxGeometry width="50" height="50" relative="1" as="geometry">
            <mxPoint x="880" y="-290" as="sourcePoint" />
            <mxPoint x="930" y="-340" as="targetPoint" />
          </mxGeometry>
        </mxCell>
        <mxCell id="ZJtHcfAPjwSgVXNK9L1_-98" value="" style="endArrow=none;html=1;rounded=0;exitX=0.071;exitY=0.2;exitDx=0;exitDy=0;exitPerimeter=0;entryX=0.921;entryY=0.744;entryDx=0;entryDy=0;entryPerimeter=0;" parent="1" source="ZJtHcfAPjwSgVXNK9L1_-96" target="ZJtHcfAPjwSgVXNK9L1_-27" edge="1">
          <mxGeometry width="50" height="50" relative="1" as="geometry">
            <mxPoint x="990" y="-330" as="sourcePoint" />
            <mxPoint x="1040" y="-380" as="targetPoint" />
          </mxGeometry>
        </mxCell>
        <mxCell id="ZJtHcfAPjwSgVXNK9L1_-100" value="&lt;font style=&quot;&quot;&gt;&lt;font style=&quot;vertical-align: inherit;&quot;&gt;&lt;font style=&quot;vertical-align: inherit; font-size: 18px;&quot;&gt;Одежда&lt;/font&gt;&lt;/font&gt;&lt;/font&gt;" style="ellipse;whiteSpace=wrap;html=1;" parent="1" vertex="1">
          <mxGeometry x="1241" y="-970" width="120" height="60" as="geometry" />
        </mxCell>
        <mxCell id="ZJtHcfAPjwSgVXNK9L1_-101" value="&lt;font style=&quot;vertical-align: inherit;&quot;&gt;&lt;font style=&quot;vertical-align: inherit; font-size: 18px;&quot;&gt;Амуниция&lt;/font&gt;&lt;/font&gt;" style="ellipse;whiteSpace=wrap;html=1;" parent="1" vertex="1">
          <mxGeometry x="1340" y="-900" width="120" height="50" as="geometry" />
        </mxCell>
        <mxCell id="ZJtHcfAPjwSgVXNK9L1_-102" value="&lt;font style=&quot;vertical-align: inherit;&quot;&gt;&lt;font style=&quot;vertical-align: inherit; font-size: 18px;&quot;&gt;&lt;font style=&quot;vertical-align: inherit;&quot;&gt;&lt;font style=&quot;vertical-align: inherit;&quot;&gt;Аксессуары&lt;/font&gt;&lt;/font&gt;&lt;/font&gt;&lt;/font&gt;" style="ellipse;whiteSpace=wrap;html=1;" parent="1" vertex="1">
          <mxGeometry x="1320" y="-825" width="120" height="60" as="geometry" />
        </mxCell>
        <mxCell id="ZJtHcfAPjwSgVXNK9L1_-103" value="&lt;font style=&quot;vertical-align: inherit;&quot;&gt;&lt;font style=&quot;vertical-align: inherit; font-size: 18px;&quot;&gt;&lt;font style=&quot;vertical-align: inherit;&quot;&gt;&lt;font style=&quot;vertical-align: inherit;&quot;&gt;Полезные мелочи&lt;/font&gt;&lt;/font&gt;&lt;/font&gt;&lt;/font&gt;" style="ellipse;whiteSpace=wrap;html=1;" parent="1" vertex="1">
          <mxGeometry x="1230" y="-760" width="140" height="70" as="geometry" />
        </mxCell>
        <mxCell id="ZJtHcfAPjwSgVXNK9L1_-104" value="" style="endArrow=none;html=1;rounded=0;exitX=0.5;exitY=1;exitDx=0;exitDy=0;entryX=0;entryY=0;entryDx=0;entryDy=0;" parent="1" source="ZJtHcfAPjwSgVXNK9L1_-107" target="ZJtHcfAPjwSgVXNK9L1_-103" edge="1">
          <mxGeometry width="50" height="50" relative="1" as="geometry">
            <mxPoint x="1218.5" y="-820" as="sourcePoint" />
            <mxPoint x="1290" y="-870" as="targetPoint" />
          </mxGeometry>
        </mxCell>
        <mxCell id="ZJtHcfAPjwSgVXNK9L1_-105" value="" style="endArrow=none;html=1;rounded=0;exitX=0.938;exitY=0.805;exitDx=0;exitDy=0;entryX=0;entryY=0.35;entryDx=0;entryDy=0;entryPerimeter=0;exitPerimeter=0;" parent="1" source="ZJtHcfAPjwSgVXNK9L1_-107" target="ZJtHcfAPjwSgVXNK9L1_-102" edge="1">
          <mxGeometry width="50" height="50" relative="1" as="geometry">
            <mxPoint x="1274.2156251951333" y="-828.8664869949494" as="sourcePoint" />
            <mxPoint x="1290" y="-870" as="targetPoint" />
          </mxGeometry>
        </mxCell>
        <mxCell id="ZJtHcfAPjwSgVXNK9L1_-107" value="&lt;font style=&quot;vertical-align: inherit;&quot;&gt;&lt;font style=&quot;vertical-align: inherit; font-size: 18px;&quot;&gt;Категория&lt;/font&gt;&lt;/font&gt;" style="ellipse;shape=doubleEllipse;margin=3;whiteSpace=wrap;html=1;align=center;" parent="1" vertex="1">
          <mxGeometry x="1150" y="-875" width="140" height="65" as="geometry" />
        </mxCell>
        <mxCell id="ZJtHcfAPjwSgVXNK9L1_-108" value="" style="endArrow=none;html=1;rounded=0;entryX=0;entryY=1;entryDx=0;entryDy=0;exitX=0.5;exitY=0;exitDx=0;exitDy=0;" parent="1" source="ZJtHcfAPjwSgVXNK9L1_-107" target="ZJtHcfAPjwSgVXNK9L1_-100" edge="1">
          <mxGeometry width="50" height="50" relative="1" as="geometry">
            <mxPoint x="1240" y="-830" as="sourcePoint" />
            <mxPoint x="1290" y="-880" as="targetPoint" />
          </mxGeometry>
        </mxCell>
        <mxCell id="ZJtHcfAPjwSgVXNK9L1_-109" value="" style="endArrow=none;html=1;rounded=0;entryX=0;entryY=0.5;entryDx=0;entryDy=0;" parent="1" target="ZJtHcfAPjwSgVXNK9L1_-101" edge="1">
          <mxGeometry width="50" height="50" relative="1" as="geometry">
            <mxPoint x="1290" y="-850" as="sourcePoint" />
            <mxPoint x="1290" y="-880" as="targetPoint" />
          </mxGeometry>
        </mxCell>
        <mxCell id="ZJtHcfAPjwSgVXNK9L1_-110" value="" style="endArrow=none;html=1;rounded=0;exitX=1;exitY=0.5;exitDx=0;exitDy=0;entryX=0;entryY=0.5;entryDx=0;entryDy=0;" parent="1" source="ZJtHcfAPjwSgVXNK9L1_-33" target="ZJtHcfAPjwSgVXNK9L1_-107" edge="1">
          <mxGeometry width="50" height="50" relative="1" as="geometry">
            <mxPoint x="1240" y="-830" as="sourcePoint" />
            <mxPoint x="1290" y="-880" as="targetPoint" />
          </mxGeometry>
        </mxCell>
        <mxCell id="ZJtHcfAPjwSgVXNK9L1_-111" value="&lt;font style=&quot;vertical-align: inherit;&quot;&gt;&lt;font style=&quot;vertical-align: inherit; font-size: 18px;&quot;&gt;Фото&lt;/font&gt;&lt;/font&gt;" style="ellipse;whiteSpace=wrap;html=1;" parent="1" vertex="1">
          <mxGeometry x="895" y="-770" width="130" height="55" as="geometry" />
        </mxCell>
        <mxCell id="ZJtHcfAPjwSgVXNK9L1_-112" value="" style="endArrow=none;html=1;rounded=0;entryX=0.5;entryY=1;entryDx=0;entryDy=0;exitX=0.5;exitY=0;exitDx=0;exitDy=0;" parent="1" source="ZJtHcfAPjwSgVXNK9L1_-111" target="ZJtHcfAPjwSgVXNK9L1_-33" edge="1">
          <mxGeometry width="50" height="50" relative="1" as="geometry">
            <mxPoint x="860" y="-770" as="sourcePoint" />
            <mxPoint x="910" y="-820" as="targetPoint" />
          </mxGeometry>
        </mxCell>
      </root>
    </mxGraphModel>
  </diagram>
  <diagram id="G2-f3uX3uYWa-r9XiSH9" name="Crow’s Foot">
    <mxGraphModel dx="1141" dy="2094" grid="1" gridSize="10" guides="1" tooltips="1" connect="1" arrows="1" fold="1" page="1" pageScale="1" pageWidth="827" pageHeight="1169" math="0" shadow="0">
      <root>
        <mxCell id="0" />
        <mxCell id="1" parent="0" />
        <mxCell id="yanzYE_37UMT9mzNJ_2o-1" value="Заказ" style="swimlane;childLayout=stackLayout;horizontal=1;startSize=50;horizontalStack=0;rounded=1;fontSize=14;fontStyle=0;strokeWidth=2;resizeParent=0;resizeLast=1;shadow=0;dashed=0;align=center;arcSize=4;whiteSpace=wrap;html=1;" parent="1" vertex="1">
          <mxGeometry x="180" y="110" width="150" height="300" as="geometry" />
        </mxCell>
        <mxCell id="yanzYE_37UMT9mzNJ_2o-2" value="*Номер заказа&amp;nbsp;&lt;div&gt;Количество товаров&lt;/div&gt;&lt;div&gt;&lt;span style=&quot;background-color: transparent; color: light-dark(rgb(0, 0, 0), rgb(255, 255, 255));&quot;&gt;Фамилия&lt;/span&gt;&lt;/div&gt;&lt;div&gt;Имя&lt;/div&gt;&lt;div&gt;Отчество&lt;/div&gt;&lt;div&gt;Электронная почта&lt;/div&gt;&lt;div&gt;Номер телефона&lt;/div&gt;&lt;div&gt;&lt;div&gt;Индекс&lt;/div&gt;&lt;div&gt;Страна&lt;/div&gt;&lt;div&gt;Город&lt;/div&gt;&lt;div&gt;Улица&lt;/div&gt;&lt;div&gt;Номер дома&lt;/div&gt;&lt;div&gt;Номер квартиры&lt;/div&gt;&lt;/div&gt;&lt;div&gt;Согласие на обработку&amp;nbsp;&lt;/div&gt;&lt;div&gt;персональных данных&lt;/div&gt;" style="align=left;strokeColor=none;fillColor=none;spacingLeft=4;fontSize=12;verticalAlign=top;resizable=0;rotatable=0;part=1;html=1;" parent="yanzYE_37UMT9mzNJ_2o-1" vertex="1">
          <mxGeometry y="50" width="150" height="250" as="geometry" />
        </mxCell>
        <mxCell id="PmTwcs7f9Y9OCmytq6J1-1" value="Оплата" style="swimlane;childLayout=stackLayout;horizontal=1;startSize=50;horizontalStack=0;rounded=1;fontSize=14;fontStyle=0;strokeWidth=2;resizeParent=0;resizeLast=1;shadow=0;dashed=0;align=center;arcSize=4;whiteSpace=wrap;html=1;" parent="1" vertex="1">
          <mxGeometry x="490" y="440" width="180" height="130" as="geometry" />
        </mxCell>
        <mxCell id="PmTwcs7f9Y9OCmytq6J1-2" value="&lt;div&gt;*Номер оплаты&lt;/div&gt;&lt;div&gt;Сумма&lt;/div&gt;&lt;div&gt;Способ оплаты&lt;/div&gt;&lt;div&gt;Статус оплаты&lt;/div&gt;" style="align=left;strokeColor=none;fillColor=none;spacingLeft=4;fontSize=12;verticalAlign=top;resizable=0;rotatable=0;part=1;html=1;" parent="PmTwcs7f9Y9OCmytq6J1-1" vertex="1">
          <mxGeometry y="50" width="180" height="80" as="geometry" />
        </mxCell>
        <mxCell id="PmTwcs7f9Y9OCmytq6J1-10" value="" style="edgeStyle=entityRelationEdgeStyle;fontSize=12;html=1;endArrow=ERmandOne;startArrow=ERmandOne;rounded=0;entryX=1;entryY=0.75;entryDx=0;entryDy=0;exitX=0;exitY=0.5;exitDx=0;exitDy=0;startFill=0;endFill=0;" parent="1" source="PmTwcs7f9Y9OCmytq6J1-2" target="yanzYE_37UMT9mzNJ_2o-2" edge="1">
          <mxGeometry width="100" height="100" relative="1" as="geometry">
            <mxPoint x="420" y="240" as="sourcePoint" />
            <mxPoint x="520" y="140" as="targetPoint" />
          </mxGeometry>
        </mxCell>
        <mxCell id="PmTwcs7f9Y9OCmytq6J1-11" value="Содержит" style="edgeLabel;html=1;align=center;verticalAlign=middle;resizable=0;points=[];" parent="PmTwcs7f9Y9OCmytq6J1-10" vertex="1" connectable="0">
          <mxGeometry x="0.1235" y="-1" relative="1" as="geometry">
            <mxPoint as="offset" />
          </mxGeometry>
        </mxCell>
        <mxCell id="PmTwcs7f9Y9OCmytq6J1-14" value="Каталог товаров" style="swimlane;childLayout=stackLayout;horizontal=1;startSize=50;horizontalStack=0;rounded=1;fontSize=14;fontStyle=0;strokeWidth=2;resizeParent=0;resizeLast=1;shadow=0;dashed=0;align=center;arcSize=4;whiteSpace=wrap;html=1;" parent="1" vertex="1">
          <mxGeometry x="690" y="110" width="170" height="150" as="geometry" />
        </mxCell>
        <mxCell id="PmTwcs7f9Y9OCmytq6J1-15" value="*Артикул&lt;div&gt;Название товара&lt;/div&gt;&lt;div&gt;Описание товара&lt;/div&gt;&lt;div&gt;Цена&lt;/div&gt;&lt;div&gt;Фото&lt;/div&gt;&lt;div&gt;Наличие&amp;nbsp;&lt;/div&gt;" style="align=left;strokeColor=none;fillColor=none;spacingLeft=4;fontSize=12;verticalAlign=top;resizable=0;rotatable=0;part=1;html=1;" parent="PmTwcs7f9Y9OCmytq6J1-14" vertex="1">
          <mxGeometry y="50" width="170" height="100" as="geometry" />
        </mxCell>
        <mxCell id="PmTwcs7f9Y9OCmytq6J1-16" value="Категория" style="swimlane;childLayout=stackLayout;horizontal=1;startSize=50;horizontalStack=0;rounded=1;fontSize=14;fontStyle=0;strokeWidth=2;resizeParent=0;resizeLast=1;shadow=0;dashed=0;align=center;arcSize=4;whiteSpace=wrap;html=1;" parent="1" vertex="1">
          <mxGeometry x="950" y="110" width="160" height="90" as="geometry" />
        </mxCell>
        <mxCell id="PmTwcs7f9Y9OCmytq6J1-17" value="*Название категории&lt;div&gt;Описание категории&lt;/div&gt;" style="align=left;strokeColor=none;fillColor=none;spacingLeft=4;fontSize=12;verticalAlign=top;resizable=0;rotatable=0;part=1;html=1;" parent="PmTwcs7f9Y9OCmytq6J1-16" vertex="1">
          <mxGeometry y="50" width="160" height="40" as="geometry" />
        </mxCell>
        <mxCell id="PmTwcs7f9Y9OCmytq6J1-18" value="" style="edgeStyle=entityRelationEdgeStyle;fontSize=12;html=1;endArrow=ERmandOne;startArrow=ERoneToMany;rounded=0;exitX=0.994;exitY=0.13;exitDx=0;exitDy=0;exitPerimeter=0;endFill=0;startFill=0;entryX=0;entryY=0.25;entryDx=0;entryDy=0;" parent="1" source="PmTwcs7f9Y9OCmytq6J1-15" edge="1" target="PmTwcs7f9Y9OCmytq6J1-17">
          <mxGeometry width="100" height="100" relative="1" as="geometry">
            <mxPoint x="1100" y="240" as="sourcePoint" />
            <mxPoint x="1200" y="140" as="targetPoint" />
          </mxGeometry>
        </mxCell>
        <mxCell id="PmTwcs7f9Y9OCmytq6J1-19" value="Находится" style="edgeLabel;html=1;align=center;verticalAlign=middle;resizable=0;points=[];" parent="PmTwcs7f9Y9OCmytq6J1-18" vertex="1" connectable="0">
          <mxGeometry x="-0.1195" y="2" relative="1" as="geometry">
            <mxPoint as="offset" />
          </mxGeometry>
        </mxCell>
        <mxCell id="PmTwcs7f9Y9OCmytq6J1-20" value="Товар в заказе" style="swimlane;childLayout=stackLayout;horizontal=1;startSize=50;horizontalStack=0;rounded=1;fontSize=14;fontStyle=0;strokeWidth=2;resizeParent=0;resizeLast=1;shadow=0;dashed=0;align=center;arcSize=4;whiteSpace=wrap;html=1;" parent="1" vertex="1">
          <mxGeometry x="440" y="110" width="150" height="120" as="geometry" />
        </mxCell>
        <mxCell id="PmTwcs7f9Y9OCmytq6J1-21" value="*Номер заказа&lt;div&gt;*Артикул&lt;/div&gt;&lt;div&gt;Название товара&lt;/div&gt;&lt;div&gt;Количество&lt;/div&gt;" style="align=left;strokeColor=none;fillColor=none;spacingLeft=4;fontSize=12;verticalAlign=top;resizable=0;rotatable=0;part=1;html=1;" parent="PmTwcs7f9Y9OCmytq6J1-20" vertex="1">
          <mxGeometry y="50" width="150" height="70" as="geometry" />
        </mxCell>
        <mxCell id="PmTwcs7f9Y9OCmytq6J1-22" value="" style="edgeStyle=entityRelationEdgeStyle;fontSize=12;html=1;endArrow=ERoneToMany;startArrow=ERmandOne;rounded=0;exitX=1;exitY=0.25;exitDx=0;exitDy=0;entryX=0;entryY=0.25;entryDx=0;entryDy=0;endFill=0;startFill=0;" parent="1" source="yanzYE_37UMT9mzNJ_2o-2" target="PmTwcs7f9Y9OCmytq6J1-21" edge="1">
          <mxGeometry width="100" height="100" relative="1" as="geometry">
            <mxPoint x="350" y="175" as="sourcePoint" />
            <mxPoint x="450" y="75" as="targetPoint" />
          </mxGeometry>
        </mxCell>
        <mxCell id="PmTwcs7f9Y9OCmytq6J1-23" value="Содержит" style="edgeLabel;html=1;align=center;verticalAlign=middle;resizable=0;points=[];" parent="PmTwcs7f9Y9OCmytq6J1-22" vertex="1" connectable="0">
          <mxGeometry x="-0.0249" relative="1" as="geometry">
            <mxPoint as="offset" />
          </mxGeometry>
        </mxCell>
        <mxCell id="PmTwcs7f9Y9OCmytq6J1-24" value="" style="edgeStyle=entityRelationEdgeStyle;fontSize=12;html=1;endArrow=ERmandOne;startArrow=ERzeroToMany;rounded=0;exitX=1;exitY=0.5;exitDx=0;exitDy=0;entryX=-0.018;entryY=0.36;entryDx=0;entryDy=0;entryPerimeter=0;endFill=0;startFill=0;" parent="1" source="PmTwcs7f9Y9OCmytq6J1-21" target="PmTwcs7f9Y9OCmytq6J1-15" edge="1">
          <mxGeometry width="100" height="100" relative="1" as="geometry">
            <mxPoint x="730" y="190" as="sourcePoint" />
            <mxPoint x="830" y="90" as="targetPoint" />
          </mxGeometry>
        </mxCell>
        <mxCell id="PmTwcs7f9Y9OCmytq6J1-25" value="Включает" style="edgeLabel;html=1;align=center;verticalAlign=middle;resizable=0;points=[];" parent="PmTwcs7f9Y9OCmytq6J1-24" vertex="1" connectable="0">
          <mxGeometry x="0.0646" relative="1" as="geometry">
            <mxPoint as="offset" />
          </mxGeometry>
        </mxCell>
        <mxCell id="io1TJLy3aG54N771Ti9e-1" value="Корзина пользователя" style="swimlane;childLayout=stackLayout;horizontal=1;startSize=50;horizontalStack=0;rounded=1;fontSize=14;fontStyle=0;strokeWidth=2;resizeParent=0;resizeLast=1;shadow=0;dashed=0;align=center;arcSize=4;whiteSpace=wrap;html=1;" vertex="1" parent="1">
          <mxGeometry x="230" y="-90" width="160" height="120" as="geometry" />
        </mxCell>
        <mxCell id="io1TJLy3aG54N771Ti9e-2" value="&lt;div&gt;*Номер сессии&lt;/div&gt;&lt;div&gt;Стоимость&lt;br&gt;&lt;div&gt;Количество товаров&lt;/div&gt;&lt;/div&gt;" style="align=left;strokeColor=none;fillColor=none;spacingLeft=4;fontSize=12;verticalAlign=top;resizable=0;rotatable=0;part=1;html=1;" vertex="1" parent="io1TJLy3aG54N771Ti9e-1">
          <mxGeometry y="50" width="160" height="70" as="geometry" />
        </mxCell>
        <mxCell id="io1TJLy3aG54N771Ti9e-4" value="" style="edgeStyle=entityRelationEdgeStyle;fontSize=12;html=1;endArrow=ERoneToMany;startArrow=ERmandOne;rounded=0;exitX=1;exitY=0.25;exitDx=0;exitDy=0;entryX=0;entryY=0.25;entryDx=0;entryDy=0;startFill=0;endFill=0;" edge="1" parent="1" source="io1TJLy3aG54N771Ti9e-2" target="io1TJLy3aG54N771Ti9e-7">
          <mxGeometry width="100" height="100" relative="1" as="geometry">
            <mxPoint x="680" y="60" as="sourcePoint" />
            <mxPoint x="780" y="-40" as="targetPoint" />
          </mxGeometry>
        </mxCell>
        <mxCell id="io1TJLy3aG54N771Ti9e-5" value="Содержит" style="edgeLabel;html=1;align=center;verticalAlign=middle;resizable=0;points=[];" vertex="1" connectable="0" parent="io1TJLy3aG54N771Ti9e-4">
          <mxGeometry x="-0.0854" y="-1" relative="1" as="geometry">
            <mxPoint as="offset" />
          </mxGeometry>
        </mxCell>
        <mxCell id="io1TJLy3aG54N771Ti9e-6" value="Товар к корзине" style="swimlane;childLayout=stackLayout;horizontal=1;startSize=50;horizontalStack=0;rounded=1;fontSize=14;fontStyle=0;strokeWidth=2;resizeParent=0;resizeLast=1;shadow=0;dashed=0;align=center;arcSize=4;whiteSpace=wrap;html=1;" vertex="1" parent="1">
          <mxGeometry x="490" y="-90" width="160" height="120" as="geometry" />
        </mxCell>
        <mxCell id="io1TJLy3aG54N771Ti9e-7" value="*Номер сессии&lt;div&gt;*Артикул&lt;/div&gt;&lt;div&gt;Название товара&lt;/div&gt;&lt;div&gt;&lt;span style=&quot;background-color: light-dark(rgb(255, 255, 255), rgb(255, 255, 255));&quot;&gt;Количество&lt;/span&gt;&lt;/div&gt;" style="align=left;strokeColor=none;fillColor=none;spacingLeft=4;fontSize=12;verticalAlign=top;resizable=0;rotatable=0;part=1;html=1;" vertex="1" parent="io1TJLy3aG54N771Ti9e-6">
          <mxGeometry y="50" width="160" height="70" as="geometry" />
        </mxCell>
        <mxCell id="io1TJLy3aG54N771Ti9e-8" value="" style="edgeStyle=entityRelationEdgeStyle;fontSize=12;html=1;endArrow=ERmandOne;startArrow=ERzeroToMany;rounded=0;exitX=1;exitY=0.25;exitDx=0;exitDy=0;entryX=-0.006;entryY=0.18;entryDx=0;entryDy=0;entryPerimeter=0;endFill=0;startFill=0;" edge="1" parent="1" source="io1TJLy3aG54N771Ti9e-7" target="PmTwcs7f9Y9OCmytq6J1-15">
          <mxGeometry width="100" height="100" relative="1" as="geometry">
            <mxPoint x="720" y="40" as="sourcePoint" />
            <mxPoint x="820" y="-60" as="targetPoint" />
          </mxGeometry>
        </mxCell>
        <mxCell id="io1TJLy3aG54N771Ti9e-9" value="Включает" style="edgeLabel;html=1;align=center;verticalAlign=middle;resizable=0;points=[];" vertex="1" connectable="0" parent="io1TJLy3aG54N771Ti9e-8">
          <mxGeometry x="-0.0249" y="2" relative="1" as="geometry">
            <mxPoint as="offset" />
          </mxGeometry>
        </mxCell>
      </root>
    </mxGraphModel>
  </diagram>
  <diagram id="K53mikF63cpALdvQbfTT" name="Страница — 3">
    <mxGraphModel dx="873" dy="699" grid="1" gridSize="10" guides="1" tooltips="1" connect="1" arrows="1" fold="1" page="1" pageScale="1" pageWidth="827" pageHeight="1169" math="0" shadow="0">
      <root>
        <mxCell id="0" />
        <mxCell id="1" parent="0" />
        <mxCell id="7tqQfEkY8UUxSO36-77d-1" value="Заказ" style="swimlane;childLayout=stackLayout;horizontal=1;startSize=50;horizontalStack=0;rounded=1;fontSize=14;fontStyle=0;strokeWidth=2;resizeParent=0;resizeLast=1;shadow=0;dashed=0;align=center;arcSize=4;whiteSpace=wrap;html=1;" vertex="1" parent="1">
          <mxGeometry x="180" y="110" width="150" height="320" as="geometry" />
        </mxCell>
        <mxCell id="7tqQfEkY8UUxSO36-77d-2" value="*Номер заказа&amp;nbsp;&lt;div&gt;Количество товаров&lt;/div&gt;&lt;div&gt;&lt;span style=&quot;background-color: transparent; color: light-dark(rgb(0, 0, 0), rgb(255, 255, 255));&quot;&gt;Фамилия&lt;/span&gt;&lt;/div&gt;&lt;div&gt;Имя&lt;/div&gt;&lt;div&gt;Отчество&lt;/div&gt;&lt;div&gt;Электронная почта&lt;/div&gt;&lt;div&gt;Номер телефона&lt;/div&gt;&lt;div&gt;&lt;div&gt;Индекс&lt;/div&gt;&lt;div&gt;Страна&lt;/div&gt;&lt;div&gt;Город&lt;/div&gt;&lt;div&gt;Улица&lt;/div&gt;&lt;div&gt;Номер дома&lt;/div&gt;&lt;div&gt;Номер квартиры&lt;/div&gt;&lt;/div&gt;&lt;div&gt;&lt;div&gt;Сумма&lt;/div&gt;&lt;div&gt;Способ оплаты&lt;/div&gt;&lt;div&gt;Статус оплаты&lt;/div&gt;&lt;/div&gt;&lt;div&gt;Согласие на обработку&amp;nbsp;&lt;/div&gt;&lt;div&gt;персональных данных&lt;/div&gt;" style="align=left;strokeColor=none;fillColor=none;spacingLeft=4;fontSize=12;verticalAlign=top;resizable=0;rotatable=0;part=1;html=1;" vertex="1" parent="7tqQfEkY8UUxSO36-77d-1">
          <mxGeometry y="50" width="150" height="270" as="geometry" />
        </mxCell>
        <mxCell id="7tqQfEkY8UUxSO36-77d-7" value="Каталог товаров" style="swimlane;childLayout=stackLayout;horizontal=1;startSize=50;horizontalStack=0;rounded=1;fontSize=14;fontStyle=0;strokeWidth=2;resizeParent=0;resizeLast=1;shadow=0;dashed=0;align=center;arcSize=4;whiteSpace=wrap;html=1;" vertex="1" parent="1">
          <mxGeometry x="690" y="110" width="170" height="150" as="geometry" />
        </mxCell>
        <mxCell id="7tqQfEkY8UUxSO36-77d-8" value="*Артикул&lt;div&gt;Название товара&lt;/div&gt;&lt;div&gt;Описание товара&lt;/div&gt;&lt;div&gt;Цена&lt;/div&gt;&lt;div&gt;Фото&lt;/div&gt;&lt;div&gt;Наличие&amp;nbsp;&lt;/div&gt;" style="align=left;strokeColor=none;fillColor=none;spacingLeft=4;fontSize=12;verticalAlign=top;resizable=0;rotatable=0;part=1;html=1;" vertex="1" parent="7tqQfEkY8UUxSO36-77d-7">
          <mxGeometry y="50" width="170" height="100" as="geometry" />
        </mxCell>
        <mxCell id="7tqQfEkY8UUxSO36-77d-9" value="Категория" style="swimlane;childLayout=stackLayout;horizontal=1;startSize=50;horizontalStack=0;rounded=1;fontSize=14;fontStyle=0;strokeWidth=2;resizeParent=0;resizeLast=1;shadow=0;dashed=0;align=center;arcSize=4;whiteSpace=wrap;html=1;" vertex="1" parent="1">
          <mxGeometry x="950" y="110" width="160" height="110" as="geometry" />
        </mxCell>
        <mxCell id="7tqQfEkY8UUxSO36-77d-10" value="*Номер категории&lt;div&gt;Название категории&lt;div&gt;Описание категории&lt;/div&gt;&lt;/div&gt;" style="align=left;strokeColor=none;fillColor=none;spacingLeft=4;fontSize=12;verticalAlign=top;resizable=0;rotatable=0;part=1;html=1;" vertex="1" parent="7tqQfEkY8UUxSO36-77d-9">
          <mxGeometry y="50" width="160" height="60" as="geometry" />
        </mxCell>
        <mxCell id="7tqQfEkY8UUxSO36-77d-11" value="" style="edgeStyle=entityRelationEdgeStyle;fontSize=12;html=1;endArrow=ERmandOne;startArrow=ERoneToMany;rounded=0;exitX=0.994;exitY=0.13;exitDx=0;exitDy=0;exitPerimeter=0;endFill=0;startFill=0;entryX=0;entryY=0.25;entryDx=0;entryDy=0;" edge="1" parent="1" source="7tqQfEkY8UUxSO36-77d-8" target="7tqQfEkY8UUxSO36-77d-10">
          <mxGeometry width="100" height="100" relative="1" as="geometry">
            <mxPoint x="1100" y="240" as="sourcePoint" />
            <mxPoint x="1200" y="140" as="targetPoint" />
          </mxGeometry>
        </mxCell>
        <mxCell id="7tqQfEkY8UUxSO36-77d-12" value="Находится" style="edgeLabel;html=1;align=center;verticalAlign=middle;resizable=0;points=[];" vertex="1" connectable="0" parent="7tqQfEkY8UUxSO36-77d-11">
          <mxGeometry x="-0.1195" y="2" relative="1" as="geometry">
            <mxPoint as="offset" />
          </mxGeometry>
        </mxCell>
        <mxCell id="7tqQfEkY8UUxSO36-77d-13" value="Товар в заказе" style="swimlane;childLayout=stackLayout;horizontal=1;startSize=50;horizontalStack=0;rounded=1;fontSize=14;fontStyle=0;strokeWidth=2;resizeParent=0;resizeLast=1;shadow=0;dashed=0;align=center;arcSize=4;whiteSpace=wrap;html=1;" vertex="1" parent="1">
          <mxGeometry x="440" y="110" width="150" height="120" as="geometry" />
        </mxCell>
        <mxCell id="7tqQfEkY8UUxSO36-77d-14" value="*Номер заказа&lt;div&gt;*Артикул&lt;/div&gt;&lt;div&gt;Количество&lt;/div&gt;" style="align=left;strokeColor=none;fillColor=none;spacingLeft=4;fontSize=12;verticalAlign=top;resizable=0;rotatable=0;part=1;html=1;" vertex="1" parent="7tqQfEkY8UUxSO36-77d-13">
          <mxGeometry y="50" width="150" height="70" as="geometry" />
        </mxCell>
        <mxCell id="7tqQfEkY8UUxSO36-77d-15" value="" style="edgeStyle=entityRelationEdgeStyle;fontSize=12;html=1;endArrow=ERoneToMany;startArrow=ERmandOne;rounded=0;exitX=1;exitY=0.25;exitDx=0;exitDy=0;entryX=0;entryY=0.25;entryDx=0;entryDy=0;endFill=0;startFill=0;" edge="1" parent="1" source="7tqQfEkY8UUxSO36-77d-2" target="7tqQfEkY8UUxSO36-77d-14">
          <mxGeometry width="100" height="100" relative="1" as="geometry">
            <mxPoint x="350" y="175" as="sourcePoint" />
            <mxPoint x="450" y="75" as="targetPoint" />
          </mxGeometry>
        </mxCell>
        <mxCell id="7tqQfEkY8UUxSO36-77d-16" value="Содержит" style="edgeLabel;html=1;align=center;verticalAlign=middle;resizable=0;points=[];" vertex="1" connectable="0" parent="7tqQfEkY8UUxSO36-77d-15">
          <mxGeometry x="-0.0249" relative="1" as="geometry">
            <mxPoint as="offset" />
          </mxGeometry>
        </mxCell>
        <mxCell id="7tqQfEkY8UUxSO36-77d-17" value="" style="edgeStyle=entityRelationEdgeStyle;fontSize=12;html=1;endArrow=ERmandOne;startArrow=ERzeroToMany;rounded=0;exitX=1;exitY=0.5;exitDx=0;exitDy=0;entryX=-0.018;entryY=0.36;entryDx=0;entryDy=0;entryPerimeter=0;endFill=0;startFill=0;" edge="1" parent="1" source="7tqQfEkY8UUxSO36-77d-14" target="7tqQfEkY8UUxSO36-77d-8">
          <mxGeometry width="100" height="100" relative="1" as="geometry">
            <mxPoint x="730" y="190" as="sourcePoint" />
            <mxPoint x="830" y="90" as="targetPoint" />
          </mxGeometry>
        </mxCell>
        <mxCell id="7tqQfEkY8UUxSO36-77d-18" value="Включает" style="edgeLabel;html=1;align=center;verticalAlign=middle;resizable=0;points=[];" vertex="1" connectable="0" parent="7tqQfEkY8UUxSO36-77d-17">
          <mxGeometry x="0.0646" relative="1" as="geometry">
            <mxPoint as="offset" />
          </mxGeometry>
        </mxCell>
      </root>
    </mxGraphModel>
  </diagram>
</mxfile>
